<svg width="445" height="187" viewBox="0 0 445 187" fill="none" xmlns="http://www.w3.org/2000/svg">
<path d="M65.9351 32.368L78.8748 24.9999L78.8258 91.4102L65.8369 98.7783L65.9351 32.368Z" fill="#163D83"/>
<path d="M141.406 122.337L86.3999 91.3616V24.9999L141.406 56.4115V122.337Z" fill="#163D83"/>
<path d="M137.619 128.734L83.0065 160.582L28.8862 128.443L82.5637 97.6617L137.619 128.734Z" fill="#163D83"/>
<path d="M45.5164 57.0436L58.5052 49.627L58.4068 103.046L45.418 110.414L45.5164 57.0436Z" fill="#163D83"/>
<path d="M25.0984 84.0906L38.0873 76.674L37.9889 114.678L25 122.046L25.0984 84.0906Z" fill="#163D83"/>
<path d="M191.418 122.296C185.312 122.296 180.025 120.883 175.639 118.016C171.213 115.189 167.812 111.272 165.435 106.265C163.057 101.258 161.869 95.5649 161.869 89.1447C161.869 82.6032 163.099 76.8692 165.557 71.8623C168.017 66.8553 171.418 62.9383 175.845 60.112C180.23 57.2853 185.394 55.872 191.295 55.872C195.885 55.872 200.025 56.72 203.673 58.3755C207.361 60.0311 210.353 62.373 212.73 65.4014C215.066 68.4301 216.541 71.9429 217.115 75.9405H207.115C206.336 72.9929 204.656 70.4085 202.033 68.1474C199.41 65.8861 195.885 64.7556 191.5 64.7556C187.607 64.7556 184.164 65.7649 181.254 67.7436C178.345 69.722 176.049 72.5486 174.41 76.1425C172.771 79.7362 171.951 83.9759 171.951 88.8216C171.951 93.7883 172.771 98.1089 174.369 101.783C175.967 105.458 178.221 108.325 181.172 110.344C184.082 112.363 187.566 113.413 191.5 113.413C194.123 113.413 196.459 112.968 198.591 112.08C200.722 111.192 202.525 109.9 204 108.244C205.476 106.588 206.5 104.57 207.156 102.227H217.156C216.582 106.023 215.189 109.415 212.976 112.443C210.763 115.472 207.812 117.854 204.205 119.631C200.435 121.408 196.213 122.296 191.418 122.296Z" fill="#163D83"/>
<path d="M269.033 95.2017V57.2047H279.033V121.448H269.033V110.586H268.337C266.82 113.857 264.443 116.603 261.205 118.904C257.968 121.166 253.91 122.296 248.992 122.296C244.935 122.296 241.287 121.408 238.132 119.631C234.976 117.855 232.476 115.189 230.672 111.596C228.869 108.002 227.968 103.479 227.968 98.0283V57.2047H237.968V97.3822C237.968 102.066 239.32 105.822 241.984 108.608C244.648 111.394 248.091 112.807 252.23 112.807C254.73 112.807 257.271 112.161 259.853 110.909C262.435 109.657 264.607 107.719 266.41 105.135C268.214 102.551 269.033 99.2396 269.033 95.2017Z" fill="#163D83"/>
<path d="M289.844 120.964V41.6989L299.845 35.2786V66.8957H300.705C301.443 65.7649 302.467 64.3517 303.778 62.6155C305.089 60.8791 306.976 59.3042 309.475 57.9314C311.935 56.5585 315.295 55.8721 319.557 55.8721C325.05 55.8721 329.885 57.245 334.067 59.9099C338.246 62.6155 341.526 66.4514 343.861 71.4181C346.197 76.3847 347.385 82.2397 347.385 88.983C347.385 95.8071 346.197 101.662 343.861 106.669C341.526 111.636 338.246 115.512 334.106 118.218C329.927 120.923 325.132 122.296 319.721 122.296C315.542 122.296 312.18 121.61 309.64 120.237C307.14 118.864 305.171 117.289 303.82 115.512C302.467 113.736 301.4 112.282 300.663 111.111H299.476V120.964H289.844ZM299.681 88.8216C299.681 93.667 300.418 97.9472 301.852 101.662C303.287 105.377 305.418 108.244 308.164 110.304C310.951 112.363 314.353 113.412 318.368 113.412C322.55 113.412 326.074 112.322 328.86 110.142C331.689 107.961 333.82 105.014 335.213 101.258C336.649 97.5436 337.344 93.3844 337.344 88.8216C337.344 84.2992 336.649 80.2209 335.255 76.5868C333.86 72.9525 331.729 70.0453 328.943 67.9454C326.114 65.8053 322.59 64.7556 318.368 64.7556C314.31 64.7556 310.869 65.7649 308.082 67.784C305.296 69.8028 303.205 72.6294 301.812 76.2233C300.376 79.817 299.681 84.0163 299.681 88.8216Z" fill="#163D83"/>
<path d="M388.607 122.296C382.337 122.296 376.928 120.923 372.378 118.177C367.829 115.432 364.345 111.595 361.885 106.629C359.428 101.662 358.197 95.9284 358.197 89.3465C358.197 82.7646 359.428 76.95 361.885 71.9429C364.345 66.8957 367.747 62.9787 372.173 60.1521C376.559 57.3257 381.723 55.9124 387.625 55.9124C391.025 55.9124 394.387 56.4777 397.706 57.5679C401.026 58.6986 404.017 60.4752 406.763 62.9787C409.468 65.4823 411.641 68.7531 413.238 72.8717C414.838 76.9904 415.656 82.0379 415.656 88.0139V92.2135H365.329V83.6933H405.41C405.41 80.0592 404.672 76.8288 403.239 74.0024C401.764 71.1758 399.715 68.9145 397.051 67.2589C394.387 65.6035 391.231 64.7958 387.583 64.7958C383.608 64.7958 380.166 65.7649 377.255 67.7032C374.346 69.6414 372.133 72.145 370.576 75.2542C369.018 78.3632 368.238 81.6744 368.238 85.2277V90.9213C368.238 95.7667 369.1 99.8855 370.82 103.237C372.542 106.588 374.92 109.132 377.993 110.909C381.066 112.645 384.592 113.534 388.649 113.534C391.271 113.534 393.649 113.17 395.82 112.443C397.953 111.717 399.797 110.586 401.353 109.092C402.91 107.598 404.099 105.74 404.961 103.52L414.632 106.185C413.607 109.415 411.887 112.242 409.51 114.705C407.092 117.127 404.141 119.025 400.575 120.398C396.969 121.61 392.994 122.296 388.607 122.296Z" fill="#163D83"/>
</svg>
